<svg width="41" height="42" viewBox="0 0 41 42" fill="none" xmlns="http://www.w3.org/2000/svg">
<path d="M20 39C29.9411 39 38 30.9411 38 21C38 11.0589 29.9411 3 20 3C10.0589 3 2 11.0589 2 21C2 30.9411 10.0589 39 20 39Z" stroke="#C4C5C5" stroke-width="4"/>
<path d="M19.7777 1.00126C23.5439 0.959478 27.2453 1.98202 30.456 3.95118C33.6667 5.92035 36.256 8.7561 37.9261 12.132C39.5961 15.508 40.2789 19.2869 39.8959 23.0338C39.5129 26.7807 38.0797 30.3433 35.7612 33.3115C33.4426 36.2797 30.3331 38.533 26.7904 39.8118C23.2478 41.0907 19.416 41.3432 15.7361 40.5403C12.0563 39.7374 8.67795 37.9118 5.98996 35.2734C3.30197 32.6351 1.4136 29.2914 0.542206 25.6272L4.41829 24.7054C5.11609 27.6397 6.62828 30.3173 8.7808 32.4301C10.9333 34.5428 13.6387 36.0048 16.5855 36.6477C19.5323 37.2907 22.6007 37.0884 25.4376 36.0643C28.2746 35.0402 30.7647 33.2359 32.6213 30.8589C34.4779 28.482 35.6257 25.6291 35.9324 22.6286C36.2391 19.6281 35.6923 16.602 34.3549 13.8986C33.0176 11.1952 30.9441 8.92436 28.373 7.34747C25.8019 5.77057 22.8378 4.95173 19.8219 4.98519L19.7777 1.00126Z" fill="#5453E0"/>
</svg>
